<?xml version="1.0" encoding="utf-8"?>
<svg viewBox="90.802 193.47 390.554 108.582" xmlns="http://www.w3.org/2000/svg">
  <path d="M 344.684 250.028 C 339.737 216.11 307.685 195.724 274.135 202.689 C 271.653 203.423 271.066 205.427 271.393 208.16 C 271.873 210.672 273.629 212.018 276.314 211.421 C 304.804 205.275 331.802 223.204 335.952 252.204 C 336.276 253.357 337.075 255.358 340.522 254.907 C 343.204 254.278 345.026 252.74 344.684 250.028 Z" style="stroke: rgb(12, 132, 244); fill: rgb(12, 132, 244); transform-origin: 308.186px 228.626px;" transform="matrix(0.999848008156, 0.017452003434, -0.017452003434, 0.999848008156, -6.15303e-7, 0.000001194702)">
    <title>wave2</title>
    <animate attributeName="fill-opacity" values="0;1" begin="0.5s" dur="0.5s" fill="freeze" keyTimes="0; 1" calcMode="spline" keySplines="0.5 1 0.89 1"/>
    <animate attributeName="stroke-opacity" values="0;1" begin="0.5s" dur="0.5s" fill="freeze" keyTimes="0; 1" calcMode="spline" keySplines="0.5 1 0.89 1"/>
    <animateTransform type="translate" additive="sum" attributeName="transform" values="-10 11;0 0" begin="0.5s" dur="0.5s" fill="freeze" keyTimes="0; 1" calcMode="spline" keySplines="0.5 1 0.89 1"/>
    <animateTransform type="scale" additive="sum" attributeName="transform" values="0.5 0.5;1 1" begin="0.5s" dur="0.5s" fill="freeze" keyTimes="0; 1" calcMode="spline" keySplines="0.5 1 0.89 1"/>
    <animate attributeName="visibility" values="hidden;visible;visible" dur="3.93s" fill="freeze" calcMode="discrete" keyTimes="0; 0.12723; 0.98528"/>
    <animateTransform type="translate" additive="sum" attributeName="transform" values="0 0;125 0" begin="1s" dur="0.5s" fill="freeze" keyTimes="0; 1" calcMode="spline" keySplines="0.5 1 0.89 1"/>
  </path>
  <path d="M 279.031 221.86 C 276.543 222.596 276.256 224.727 276.582 227.46 C 277.061 229.973 278.525 231.19 281.208 230.593 C 296.304 227.501 313.33 240.978 315.39 256.083 C 315.715 257.235 317.075 259.411 320.492 258.851 C 323.157 258.241 324.448 256.64 324.122 253.906 C 321.248 233.876 298.799 217.685 279.031 221.86 Z" style="stroke: rgb(12, 132, 244); fill: rgb(12, 132, 244); transform-origin: 298.395px 238.757px;" transform="matrix(0.999848008156, 0.017452003434, -0.017452003434, 0.999848008156, -6.77731e-7, 4.41381e-7)">
    <title>wave1</title>
    <animate attributeName="fill-opacity" values="0;1" dur="0.5s" fill="freeze" keyTimes="0; 1" calcMode="spline" keySplines="0.25 1 0.5 1"/>
    <animate attributeName="stroke-opacity" values="0;1" dur="0.5s" fill="freeze" keyTimes="0; 1" calcMode="spline" keySplines="0.5 1 0.89 1"/>
    <animateTransform type="translate" additive="sum" attributeName="transform" values="-11 15;0 0" dur="0.5s" fill="freeze" keyTimes="0; 1" calcMode="spline" keySplines="0.5 1 0.89 1"/>
    <animateTransform type="scale" additive="sum" attributeName="transform" values="0.5 0.5;1 1" dur="0.5s" fill="freeze" keyTimes="0; 1"/>
    <animateTransform type="translate" additive="sum" attributeName="transform" values="0 0;125 0" begin="1s" dur="0.5s" fill="freeze" keyTimes="0; 1" calcMode="spline" keySplines="0.5 1 0.89 1"/>
  </path>
  <path d="M 134.424 278.539 L 103.048 278.539 L 103.048 230.889 L 108.447 230.889 L 108.447 273.36 L 134.424 273.36 L 134.424 278.539 Z" style="white-space: pre; stroke-width: 2px; stroke-miterlimit: 25; stroke: rgb(12, 132, 244); fill: rgb(12, 132, 244);" transform="matrix(1.0000000000000002, 0, 0, 1.0000000000000002, 2.842170943040401e-14, 7.105427357601002e-15)">
    <title>L</title>
    <animateTransform type="translate" additive="sum" attributeName="transform" values="800 0;0 0" begin="1s" dur="1s" fill="freeze" end="2s" keyTimes="0; 1" calcMode="spline" keySplines="0.5 1 0.89 1"/>
    <animate attributeName="visibility" values="hidden;visible;visible" dur="3.64s" fill="freeze" calcMode="discrete" keyTimes="0; 0.39011; 0.886735"/>
  </path>
  <path d="M 154.282 278.539 C 150.643 278.539 147.475 277.713 144.783 276.06 C 142.09 274.394 140.024 272.147 138.584 269.321 C 137.144 266.496 136.424 263.376 136.424 259.963 C 136.424 256.51 137.144 253.378 138.584 250.565 C 140.024 247.765 142.09 245.532 144.783 243.866 C 147.475 242.212 150.643 241.387 154.282 241.387 C 157.974 241.387 161.153 242.212 163.821 243.866 C 166.487 245.532 168.541 247.765 169.98 250.565 C 171.42 253.378 172.14 256.51 172.14 259.963 C 172.14 263.376 171.42 266.496 169.98 269.321 C 168.541 272.147 166.487 274.394 163.821 276.06 C 161.153 277.713 157.974 278.539 154.282 278.539 Z M 154.282 273.64 C 156.974 273.64 159.242 273.014 161.081 271.761 C 162.933 270.521 164.341 268.855 165.301 266.762 C 166.261 264.682 166.741 262.416 166.741 259.963 C 166.741 257.469 166.261 255.19 165.301 253.124 C 164.341 251.059 162.933 249.405 161.081 248.165 C 159.242 246.911 156.974 246.286 154.282 246.286 C 151.642 246.286 149.389 246.911 147.523 248.165 C 145.643 249.405 144.223 251.059 143.263 253.124 C 142.304 255.19 141.824 257.469 141.824 259.963 C 141.824 262.416 142.304 264.682 143.263 266.762 C 144.223 268.855 145.643 270.521 147.523 271.761 C 149.389 273.014 151.642 273.64 154.282 273.64 Z" style="white-space: pre; stroke-width: 2px; stroke-miterlimit: 25; stroke: rgb(12, 132, 244); fill: rgb(12, 132, 244);" transform="matrix(1.0000000000000002, 0, 0, 1.0000000000000002, 2.842170943040401e-14, 7.105427357601002e-15)">
    <title>O</title>
    <animate attributeName="visibility" values="hidden;visible" dur="2s" fill="freeze" calcMode="discrete" keyTimes="0; 0.73"/>
    <animateTransform type="translate" additive="sum" attributeName="transform" values="800 0;0 0" begin="1s" dur="1s" fill="freeze" end="2s" keyTimes="0; 1" calcMode="spline" keySplines="0.5 1 0.89 1"/>
  </path>
  <path d="M 184.54 277.959 L 179.14 277.959 L 179.14 241.966 L 184.54 241.966 L 184.54 247.585 C 185.834 245.852 187.419 244.386 189.299 243.186 C 191.167 241.986 193.567 241.387 196.498 241.387 C 198.992 241.387 201.332 241.972 203.518 243.146 C 205.691 244.332 207.465 246.086 208.837 248.405 C 210.211 250.739 210.897 253.604 210.897 257.004 L 210.897 277.959 L 205.497 277.959 L 205.497 257.163 C 205.497 253.898 204.558 251.265 202.678 249.265 C 200.812 247.279 198.392 246.286 195.419 246.286 C 193.393 246.286 191.567 246.74 189.939 247.645 C 188.313 248.565 187.007 249.851 186.02 251.505 C 185.034 253.158 184.54 255.064 184.54 257.223 L 184.54 277.959 Z" style="white-space: pre; stroke-width: 2px; stroke-miterlimit: 25; stroke: rgb(12, 132, 244); fill: rgb(12, 132, 244);" transform="matrix(1.0000000000000002, 0, 0, 1.0000000000000002, 2.842170943040401e-14, 7.105427357601002e-15)">
    <title>n</title>
    <animate attributeName="visibility" values="hidden;visible" dur="2s" fill="freeze" calcMode="discrete" keyTimes="0; 0.755"/>
    <animateTransform type="translate" additive="sum" attributeName="transform" values="800 0;0 0" begin="1s" dur="1s" fill="freeze" end="2s" keyTimes="0; 1" calcMode="spline" keySplines="0.5 1 0.89 1"/>
  </path>
  <path d="M 237.341 292.796 C 232.835 292.796 229.17 291.823 226.342 289.877 C 223.502 287.931 221.583 285.398 220.583 282.279 L 226.542 282.279 C 227.262 284.052 228.516 285.432 230.302 286.418 C 232.076 287.404 234.329 287.897 237.061 287.897 C 241.195 287.897 244.208 286.924 246.1 284.978 C 247.994 283.032 248.94 280.213 248.94 276.52 L 248.94 271.561 C 247.594 273.48 245.854 275.026 243.72 276.2 C 241.588 277.374 239.035 277.959 236.061 277.959 C 232.555 277.959 229.496 277.154 226.882 275.54 C 224.256 273.94 222.223 271.747 220.783 268.961 C 219.343 266.176 218.623 263.082 218.623 259.683 C 218.623 256.218 219.343 253.104 220.783 250.345 C 222.223 247.585 224.256 245.406 226.882 243.806 C 229.496 242.192 232.555 241.387 236.061 241.387 C 239.035 241.387 241.588 241.952 243.72 243.086 C 245.854 244.206 247.594 245.752 248.94 247.725 L 248.94 241.966 L 254.339 241.966 L 254.339 276.88 C 254.339 282.013 252.867 285.944 249.92 288.677 C 246.96 291.423 242.768 292.796 237.341 292.796 Z M 236.781 273.06 C 239.421 273.06 241.66 272.46 243.5 271.261 C 245.354 270.061 246.774 268.441 247.76 266.402 C 248.734 264.362 249.22 262.123 249.22 259.683 C 249.22 257.177 248.734 254.918 247.76 252.904 C 246.774 250.891 245.354 249.285 243.5 248.085 C 241.66 246.886 239.421 246.286 236.781 246.286 C 234.141 246.286 231.862 246.886 229.942 248.085 C 228.022 249.285 226.556 250.891 225.542 252.904 C 224.53 254.918 224.022 257.177 224.022 259.683 C 224.022 262.123 224.53 264.362 225.542 266.402 C 226.556 268.441 228.022 270.061 229.942 271.261 C 231.862 272.46 234.141 273.06 236.781 273.06 Z" style="white-space: pre; stroke-width: 2px; stroke-miterlimit: 25; stroke: rgb(12, 132, 244); fill: rgb(12, 132, 244);" transform="matrix(1.0000000000000002, 0, 0, 1.0000000000000002, 2.842170943040401e-14, 7.105427357601002e-15)">
    <title>g</title>
    <animate attributeName="visibility" values="hidden;visible" dur="2s" fill="freeze" calcMode="discrete" keyTimes="0; 0.78"/>
    <animateTransform type="translate" additive="sum" attributeName="transform" values="800 0;0 0" begin="1s" dur="1s" fill="freeze" end="2s" keyTimes="0; 1" calcMode="spline" keySplines="0.5 1 0.89 1"/>
  </path>
  <path d="M 275.956 278.539 L 269.756 278.539 L 258.457 242.546 L 264.217 242.546 L 272.856 271.841 L 281.995 242.546 L 287.894 242.546 L 297.053 271.841 L 305.692 242.546 L 311.452 242.546 L 300.133 278.539 L 293.953 278.539 L 284.954 249.825 L 275.956 278.539 Z" style="white-space: pre; stroke-width: 2px; stroke-miterlimit: 25; stroke: rgb(12, 132, 244); fill: rgb(12, 132, 244);" transform="matrix(1.0000000000000002, 0, 0, 1.0000000000000002, 2.842170943040401e-14, 7.105427357601002e-15)">
    <title>w</title>
    <animate attributeName="visibility" values="hidden;visible" dur="2s" fill="freeze" calcMode="discrete" keyTimes="0; 0.82"/>
    <animateTransform type="translate" additive="sum" attributeName="transform" values="800 0;0 0" begin="1s" dur="1s" fill="freeze" end="2s" keyTimes="0; 1" calcMode="spline" keySplines="0.5 1 0.89 1"/>
  </path>
  <path d="M 331.89 278.539 C 328.383 278.539 325.323 277.713 322.711 276.06 C 320.084 274.394 318.052 272.147 316.612 269.321 C 315.172 266.496 314.452 263.376 314.452 259.963 C 314.452 256.51 315.172 253.378 316.612 250.565 C 318.052 247.765 320.084 245.532 322.711 243.866 C 325.323 242.212 328.383 241.387 331.89 241.387 C 334.862 241.387 337.416 241.966 339.549 243.126 C 341.681 244.272 343.421 245.832 344.769 247.805 L 344.769 241.966 L 350.168 241.966 L 350.168 277.959 L 344.769 277.959 L 344.769 272.201 C 343.421 274.12 341.681 275.654 339.549 276.8 C 337.416 277.959 334.862 278.539 331.89 278.539 Z M 332.61 273.64 C 335.29 273.64 337.556 273.014 339.409 271.761 C 341.249 270.521 342.649 268.855 343.609 266.762 C 344.569 264.682 345.049 262.416 345.049 259.963 C 345.049 257.469 344.569 255.19 343.609 253.124 C 342.649 251.059 341.249 249.405 339.409 248.165 C 337.556 246.911 335.29 246.286 332.61 246.286 C 329.971 246.286 327.691 246.911 325.771 248.165 C 323.851 249.405 322.383 251.059 321.372 253.124 C 320.358 255.19 319.852 257.469 319.852 259.963 C 319.852 262.416 320.358 264.682 321.372 266.762 C 322.383 268.855 323.851 270.521 325.771 271.761 C 327.691 273.014 329.971 273.64 332.61 273.64 Z" style="white-space: pre; stroke-width: 2px; stroke-miterlimit: 25; stroke: rgb(12, 132, 244); fill: rgb(12, 132, 244);" transform="matrix(1.0000000000000002, 0, 0, 1.0000000000000002, 2.842170943040401e-14, 7.105427357601002e-15)">
    <title>a</title>
    <animate attributeName="visibility" values="hidden;visible" dur="2s" fill="freeze" calcMode="discrete" keyTimes="0; 0.865"/>
    <animateTransform type="translate" additive="sum" attributeName="transform" values="800 0;0 0" begin="1s" dur="1s" fill="freeze" end="2s" keyTimes="0; 1" calcMode="spline" keySplines="0.5 1 0.89 1"/>
  </path>
  <path d="M 374.169 278.38 L 367.85 278.38 L 353.732 242.387 L 359.631 242.387 L 371.01 272.622 L 382.309 242.387 L 388.208 242.387 L 374.169 278.38 Z" style="white-space: pre; stroke-width: 2px; stroke-miterlimit: 25; stroke: rgb(12, 132, 244); fill: rgb(12, 132, 244);" transform="matrix(1.0000000000000002, 0, 0, 1.0000000000000002, 2.842170943040401e-14, 7.105427357601002e-15)">
    <title>v</title>
    <animate attributeName="visibility" values="hidden;visible" dur="2s" fill="freeze" calcMode="discrete" keyTimes="0; 0.92"/>
    <animateTransform type="translate" additive="sum" attributeName="transform" values="800 0;0 0" begin="1s" dur="1s" fill="freeze" end="2s" keyTimes="0; 1" calcMode="spline" keySplines="0.5 1 0.89 1"/>
  </path>
  <path d="M 285.925 278.549 C 282.285 278.549 279.091 277.723 276.346 276.07 C 273.612 274.404 271.492 272.157 269.986 269.331 C 268.467 266.506 267.707 263.386 267.707 259.973 C 267.707 256.52 268.427 253.388 269.866 250.575 C 271.306 247.775 273.372 245.542 276.066 243.876 C 278.757 242.222 281.925 241.397 285.565 241.397 C 289.256 241.397 292.436 242.222 295.104 243.876 C 297.769 245.542 299.823 247.775 301.263 250.575 C 302.703 253.388 303.423 256.52 303.423 259.973 L 303.423 262.133 L 273.266 262.133 C 273.546 264.238 274.226 266.172 275.306 267.931 C 276.386 269.677 277.837 271.071 279.665 272.111 C 281.491 273.136 283.605 273.65 286.005 273.65 C 288.55 273.65 290.684 273.084 292.404 271.951 C 294.136 270.831 295.484 269.385 296.443 267.611 L 302.343 267.611 C 301.089 270.825 299.109 273.45 296.403 275.49 C 293.696 277.529 290.204 278.549 285.925 278.549 Z M 273.326 257.094 L 297.803 257.094 C 297.323 254.028 296.029 251.461 293.924 249.395 C 291.804 247.329 289.016 246.296 285.565 246.296 C 282.111 246.296 279.337 247.329 277.246 249.395 C 275.166 251.461 273.858 254.028 273.326 257.094 Z" style="white-space: pre; stroke-width: 2px; stroke-miterlimit: 25; stroke: rgb(12, 132, 244); fill: rgb(12, 132, 244); transform-origin: 285.565px 259.973px;">
    <title>E</title>
    <animateTransform type="translate" additive="sum" attributeName="transform" values="0 0;125 0" begin="1s" dur="0.5s" fill="freeze" keyTimes="0; 1" calcMode="spline" keySplines="0.5 1 0.89 1"/>
    <animate attributeName="opacity" values="0;0;1" dur="2.6s" fill="freeze" keyTimes="0; 0.94865; 1" calcMode="spline" keySplines="0.94 0 1 0; 0.94 0 1 0"/>
    <animateTransform type="scale" additive="sum" attributeName="transform" values="0 0;1 1" dur="0.1s" fill="freeze" keyTimes="0; 1"/>
  </path>
  <path style="stroke: rgb(12, 132, 244); fill: rgb(12, 132, 244);" d="M 275.658 244.623 L 296.984 247.344 L 302.66 261.367 L 284.244 261.569 L 267.926 261.797 L 275.658 244.623 Z" transform="matrix(1.0000000000000002, 0, 0, 1.0000000000000002, 2.842170943040401e-14, 7.105427357601002e-15)">
    <title>e-top-cover</title>
    <animateTransform type="translate" additive="sum" attributeName="transform" values="0 0;125 0" begin="1s" dur="0.5s" fill="freeze" keyTimes="0; 1" calcMode="spline" keySplines="0.5 1 0.89 1"/>
    <animate attributeName="d" values="M 276.11 245.143 L 293.368 244.511 L 300.882 261.029 L 284.867 261.231 L 269.335 261.355 L 276.11 245.143 Z;M 273.285 248.1 L 285.931 241.217 L 286.499 241.361 L 284.739 261.773 L 269.286 261.182 L 273.285 248.1 Z" begin="2.12s" dur="0.14s" fill="freeze" keyTimes="0; 1"/>
    <animate attributeName="opacity" values="1;0" begin="3.96s" dur="0.44s" fill="freeze" keyTimes="0; 1" calcMode="spline" keySplines="0 0 0 1"/>
    <animate attributeName="d" values="M 275.658 244.623 L 282.783 241.667 L 284.829 241.587 L 284.612 261.569 L 267.926 261.797 L 275.658 244.623 Z;M 268.917 260.802 L 268.956 259.107 L 269.05 258.312 L 284.244 261.569 L 269.582 261.078 L 268.917 260.802 Z" begin="2.27s" dur="0.16s" fill="freeze" keyTimes="0; 1"/>
  </path>
  <path d="M 273.253 262.12 L 267.76 261.987 L 267.694 259.96 C 267.694 256.507 268.414 253.375 269.853 250.562 C 271.293 247.762 273.359 245.529 276.053 243.863 C 278.744 242.209 281.912 241.384 285.552 241.384 C 286.633 241.384 287.67 241.455 288.663 241.596 C 291.061 241.938 293.204 242.693 295.091 243.863 C 297.756 245.529 299.81 247.762 301.25 250.562 C 302.69 253.375 303.41 256.507 303.41 259.96 L 303.41 262.12 L 273.253 262.12 Z M 273.313 257.081 L 297.79 257.081 C 297.31 254.015 296.016 251.448 293.911 249.382 C 291.791 247.316 289.003 246.283 285.552 246.283 C 282.098 246.283 279.324 247.316 277.233 249.382 C 275.153 251.448 273.845 254.015 273.313 257.081 Z" style="white-space: pre; stroke-width: 2px; stroke-miterlimit: 25; stroke: rgb(12, 132, 244); fill: rgb(12, 132, 244);" transform="matrix(1.0000000000000002, 0, 0, 1.0000000000000002, 2.842170943040401e-14, 7.105427357601002e-15)">
    <title>E letter upper</title>
    <animateTransform type="translate" additive="sum" attributeName="transform" values="0 0;125 0" begin="1s" dur="0.5s" fill="freeze" keyTimes="0; 1" calcMode="spline" keySplines="0.5 1 0.89 1"/>
    <animate attributeName="opacity" values="1;0" begin="2.76s" dur="0.43s" fill="freeze" keyTimes="0; 1"/>
  </path>
  <path d="M 275.404 244.081 C 278.6 242.339 281.8 241.535 285.001 241.673 C 288.199 241.827 291.136 242.785 293.811 244.546 C 296.497 246.299 298.642 248.683 300.276 251.68 L 295.56 254.297 L 294.376 252.436 C 293.123 250.721 291.6 249.349 289.81 248.321 C 288.026 247.305 286.085 246.776 283.982 246.737 C 281.888 246.711 279.786 247.272 277.679 248.42 C 275.444 249.639 273.841 251.157 272.873 252.975 C 271.889 254.787 271.397 256.702 271.404 258.719 L 266.224 261.542 C 265.787 258.12 266.269 254.868 267.668 251.782 C 269.069 248.696 271.647 246.129 275.404 244.081 Z" style="white-space: pre; stroke-width: 2px; stroke-miterlimit: 25; stroke: rgb(12, 132, 244); fill: rgb(12, 132, 244); transform-origin: 285.04px 259.985px;">
    <title>E letter lower</title>
    <animateTransform type="translate" additive="sum" attributeName="transform" values="0 0;125 0" begin="1s" dur="0.5s" fill="freeze" keyTimes="0; 1" calcMode="spline" keySplines="0.5 1 0.89 1"/>
    <animateTransform type="scale" additive="sum" attributeName="transform" values="0 0;1 1" dur="0.07s" fill="freeze" keyTimes="0; 1"/>
    <animateTransform type="rotate" additive="sum" attributeName="transform" values="0;-151" begin="2s" dur="0.35s" fill="freeze" keyTimes="0; 1"/>
    <animate attributeName="opacity" values="0;0;1" dur="2.5s" fill="freeze" keyTimes="0; 0.69633; 1"/>
    <animate attributeName="opacity" values="1;0" begin="2.79s" dur="0.46s" fill="freeze" keyTimes="0; 1" calcMode="spline" keySplines="0 0 0 1"/>
  </path>
</svg>